<svg xmlns="http://www.w3.org/2000/svg" xmlns:xlink="http://www.w3.org/1999/xlink" viewBox="0 0 1159.23 1277.56"><defs><style>.cls-1{fill:none;stroke:#cba47d;stroke-miterlimit:10;stroke-width:2.72px;}.cls-2{fill:#2d2d2d;}.cls-3{clip-path:url(#clip-path);}.cls-4{clip-path:url(#clip-path-2);}</style><clipPath id="clip-path"><polygon class="cls-1" points="282.94 749.52 346.68 640.45 409.09 748.92 346.19 856.98 282.94 749.52"/></clipPath><clipPath id="clip-path-2"><polygon class="cls-1" points="503 369.67 538.85 307.67 153.54 307.67 189.39 369.67 503 369.67"/></clipPath></defs><title>Asset 20</title><g id="Layer_2" data-name="Layer 2"><g id="copy"><polygon class="cls-1" points="628.39 369.67 346.2 857.68 64 369.67 628.39 369.67"/><polygon class="cls-1" points="538.85 307.67 346.2 640.84 153.54 307.67 538.85 307.67"/><path class="cls-2" d="M538.84,723a22.56,22.56,0,1,0,22.6,22.56A22.57,22.57,0,0,0,538.84,723Z"/><path class="cls-2" d="M153.54,723a22.56,22.56,0,1,0,22.6,22.56A22.57,22.57,0,0,0,153.54,723Z"/><g class="cls-3"><line class="cls-1" x1="1002.66" x2="1002.66" y2="1045.39"/><line class="cls-1" x1="971.37" x2="971.36" y2="1045.39"/><line class="cls-1" x1="940.07" x2="940.07" y2="1045.39"/><line class="cls-1" x1="908.78" x2="908.78" y2="1045.39"/><line class="cls-1" x1="877.49" x2="877.49" y2="1045.39"/><line class="cls-1" x1="846.19" x2="846.19" y2="1045.39"/><line class="cls-1" x1="814.91" x2="814.91" y2="1045.39"/><line class="cls-1" x1="783.62" x2="783.62" y2="1045.39"/><line class="cls-1" x1="752.32" x2="752.32" y2="1045.39"/><line class="cls-1" x1="721.02" x2="721.03" y2="1045.39"/><line class="cls-1" x1="689.74" x2="689.74" y2="1045.39"/><line class="cls-1" x1="658.44" x2="658.44" y2="1045.39"/><line class="cls-1" x1="627.15" x2="627.15" y2="1045.39"/><line class="cls-1" x1="595.86" x2="595.86" y2="1045.39"/><line class="cls-1" x1="564.57" x2="564.57" y2="1045.39"/><line class="cls-1" x1="533.28" x2="533.28" y2="1045.39"/><line class="cls-1" x1="501.99" x2="501.98" y2="1045.39"/><line class="cls-1" x1="470.7" x2="470.69" y2="1045.39"/><line class="cls-1" x1="439.39" x2="439.39" y2="1045.39"/><line class="cls-1" x1="408.11" x2="408.11" y2="1045.39"/><line class="cls-1" x1="376.82" x2="376.82" y2="1045.39"/><line class="cls-1" x1="345.52" x2="345.52" y2="1045.39"/><line class="cls-1" x1="314.23" x2="314.23" y2="1045.39"/><line class="cls-1" x1="282.94" x2="282.94" y2="1045.39"/><line class="cls-1" x1="251.65" x2="251.65" y2="1045.39"/><line class="cls-1" x1="220.35" x2="220.35" y2="1045.39"/><line class="cls-1" x1="189.06" x2="189.06" y2="1045.39"/><line class="cls-1" x1="157.77" x2="157.77" y2="1045.39"/><line class="cls-1" x1="126.48" x2="126.47" y2="1045.39"/><line class="cls-1" x1="95.19" x2="95.19" y2="1045.39"/><line class="cls-1" x1="63.89" x2="63.9" y2="1045.39"/><line class="cls-1" x1="32.61" x2="32.61" y2="1045.39"/></g><polygon class="cls-1" points="282.94 749.52 346.68 640.45 409.09 748.92 346.19 856.98 282.94 749.52"/><g class="cls-4"><line class="cls-1" x1="1159.23" y1="1276.2" x2="112.2" y2="1276.2"/><line class="cls-1" x1="1159.23" y1="1244.96" x2="112.2" y2="1244.96"/><line class="cls-1" x1="1159.23" y1="1213.72" x2="112.2" y2="1213.72"/><line class="cls-1" x1="1159.23" y1="1182.47" x2="112.2" y2="1182.47"/><line class="cls-1" x1="1159.23" y1="1151.24" x2="112.2" y2="1151.24"/><line class="cls-1" x1="1159.23" y1="1119.99" x2="112.2" y2="1119.99"/><line class="cls-1" x1="1159.23" y1="1088.75" x2="112.2" y2="1088.75"/><line class="cls-1" x1="1159.23" y1="1057.51" x2="112.2" y2="1057.51"/><line class="cls-1" x1="1159.23" y1="1026.26" x2="112.2" y2="1026.26"/><line class="cls-1" x1="1159.23" y1="995.01" x2="112.2" y2="995.02"/><line class="cls-1" x1="1159.23" y1="963.78" x2="112.2" y2="963.78"/><line class="cls-1" x1="1159.23" y1="932.54" x2="112.2" y2="932.53"/><line class="cls-1" x1="1159.23" y1="901.29" x2="112.2" y2="901.29"/><line class="cls-1" x1="1159.23" y1="870.05" x2="112.2" y2="870.05"/><line class="cls-1" x1="1159.23" y1="838.8" x2="112.2" y2="838.8"/><line class="cls-1" x1="1159.23" y1="807.57" x2="112.2" y2="807.57"/><line class="cls-1" x1="1159.23" y1="776.33" x2="112.2" y2="776.32"/><line class="cls-1" x1="1159.23" y1="745.08" x2="112.2" y2="745.08"/><line class="cls-1" x1="1159.23" y1="713.83" x2="112.2" y2="713.83"/><line class="cls-1" x1="1159.23" y1="682.59" x2="112.2" y2="682.59"/><line class="cls-1" x1="1159.23" y1="651.34" x2="112.2" y2="651.34"/><line class="cls-1" x1="1159.23" y1="620.11" x2="112.2" y2="620.11"/><line class="cls-1" x1="1159.23" y1="588.86" x2="112.2" y2="588.86"/><line class="cls-1" x1="1159.23" y1="557.62" x2="112.2" y2="557.62"/><line class="cls-1" x1="1159.23" y1="526.38" x2="112.2" y2="526.38"/><line class="cls-1" x1="1159.23" y1="495.13" x2="112.2" y2="495.13"/><line class="cls-1" x1="1159.23" y1="463.89" x2="112.2" y2="463.89"/><line class="cls-1" x1="1159.23" y1="432.65" x2="112.2" y2="432.65"/><line class="cls-1" x1="1159.23" y1="401.41" x2="112.2" y2="401.4"/><line class="cls-1" x1="1159.23" y1="370.16" x2="112.2" y2="370.16"/><line class="cls-1" x1="1159.23" y1="325.31" x2="112.2" y2="325.31"/><line class="cls-1" x1="1159.23" y1="307.67" x2="112.2" y2="307.67"/></g><polygon class="cls-1" points="503 369.67 538.85 307.67 153.54 307.67 189.39 369.67 503 369.67"/><polygon class="cls-2" points="268.16 505.57 346.2 370.42 424.23 505.57 268.16 505.57"/><polygon class="cls-1" points="686.45 343.65 344.4 936.08 2.36 343.65 686.45 343.65"/></g></g></svg>