<svg xmlns="http://www.w3.org/2000/svg" viewBox="0 0 425.34 432.71"><defs><style>.cls-1{fill:#cba47d;}</style></defs><title>Asset 5</title><g id="Layer_2" data-name="Layer 2"><g id="copy"><path class="cls-1" d="M226.24,432.71,32.09,336.29l0-.54L18.51,119.93l.45-.29L199.09,0,393.25,96.42l0,.53,13.54,215.82-.44.3ZM33.87,335.11l192.24,95.47,178.8-118.76L391.47,97.6,199.23,2.13,20.43,120.88Z"/><path class="cls-1" d="M281.06,422.44l-.7-.14-212-43.68-.23-.67L0,172.54.47,172,144.28,10.27l.7.14L357,54.09l.22.67,68.17,205.41-.48.53ZM422.55,259.6,355.06,56.22,145.18,13,2.79,173.11,70.28,376.49l209.88,43.25"/></g></g></svg>