<svg xmlns="http://www.w3.org/2000/svg" viewBox="0 0 884.72 174.07"><defs><style>.cls-1{fill:#fff;}.cls-2,.cls-4{fill:#d4904c;}.cls-2,.cls-3{opacity:0.6;}</style></defs><title>Asset 1</title><g id="Layer_2" data-name="Layer 2"><g id="copy"><path class="cls-1" d="M157.15,66.82,41.4,0V172l101.11-58.37L109.29,94.45ZM51.27,17.08l86.15,49.74-38,21.94L51.27,61Zm38.3,77.37-38.3,22.11V72.34Zm33.21,19.18L51.27,154.92V128l48.16-27.8Z"/><polygon class="cls-2" points="171.83 162.08 9.86 68.57 0 74.26 161.97 167.77 171.83 162.08"/><path class="cls-1" d="M237.19,112.5h-7.64a3.34,3.34,0,0,1-3.14-1.7l-9.55-14.54a3.24,3.24,0,0,0-1.18-1.16,4.12,4.12,0,0,0-1.9-.35h-3.61V112.5h-8.45V67.07h13.85a28.73,28.73,0,0,1,7.93,1,15,15,0,0,1,5.44,2.68,10.68,10.68,0,0,1,3.13,4.14,13.55,13.55,0,0,1,1,5.29,14,14,0,0,1-.67,4.33,12.65,12.65,0,0,1-2,3.71,13.41,13.41,0,0,1-3.15,2.93,15.81,15.81,0,0,1-4.25,2,8.61,8.61,0,0,1,1.5,1.12,7.1,7.1,0,0,1,1.26,1.53ZM215.44,88.69a13.39,13.39,0,0,0,4.17-.6,8.08,8.08,0,0,0,2.92-1.65,6.61,6.61,0,0,0,1.71-2.5,8.55,8.55,0,0,0,.57-3.17,6.45,6.45,0,0,0-2.28-5.31c-1.52-1.24-3.84-1.85-7-1.85h-5.4V88.69Z"/><path class="cls-1" d="M298.49,112.5h-7.85V74.79h7.85Z"/><path class="cls-1" d="M388.49,74.79,373.31,112.5h-7.07L351.06,74.79h6.29a2.69,2.69,0,0,1,1.65.48A3,3,0,0,1,360,76.5l8.16,21.73c.31.82.62,1.7.92,2.67s.59,2,.85,3c.22-1,.47-2.06.74-3s.56-1.85.87-2.67L379.6,76.5a3,3,0,0,1,.92-1.18,2.51,2.51,0,0,1,1.65-.53Z"/><path class="cls-1" d="M451.34,80.89v9.7h12.58v5.9H451.34v9.9h16.17v6.11h-24V74.79h24v6.1Z"/><path class="cls-1" d="M552.49,112.5h-7a3,3,0,0,1-2.85-1.51l-7.17-11.57a3.26,3.26,0,0,0-1-1,3.12,3.12,0,0,0-1.57-.32h-2.65V112.5h-7.8V74.79h11.85a24.59,24.59,0,0,1,6.76.81,13.12,13.12,0,0,1,4.6,2.28,8.84,8.84,0,0,1,2.63,3.47,12.1,12.1,0,0,1,.29,8,10.42,10.42,0,0,1-1.54,3,11.41,11.41,0,0,1-2.5,2.45,12.78,12.78,0,0,1-3.38,1.71,8,8,0,0,1,1.41,1,6.91,6.91,0,0,1,1.16,1.39ZM534.22,92.64a9.93,9.93,0,0,0,3.27-.48,6.09,6.09,0,0,0,2.26-1.32,5.17,5.17,0,0,0,1.3-2,7.25,7.25,0,0,0,.42-2.5,5.14,5.14,0,0,0-1.78-4.16c-1.19-1-3-1.48-5.42-1.48h-4V92.64Z"/><path class="cls-1" d="M641.85,112.5h-7.64a3.34,3.34,0,0,1-3.14-1.7l-9.55-14.54a3.17,3.17,0,0,0-1.18-1.16,4.12,4.12,0,0,0-1.9-.35h-3.61V112.5h-8.45V67.07h13.85a28.8,28.8,0,0,1,7.94,1,15,15,0,0,1,5.43,2.68,10.58,10.58,0,0,1,3.13,4.14,14.42,14.42,0,0,1,.33,9.62,12.41,12.41,0,0,1-1.95,3.71A13.36,13.36,0,0,1,632,91.11a16,16,0,0,1-4.26,2,8.33,8.33,0,0,1,1.51,1.12,7.74,7.74,0,0,1,1.26,1.53ZM620.11,88.69a13.32,13.32,0,0,0,4.16-.6,8,8,0,0,0,2.92-1.65,6.61,6.61,0,0,0,1.71-2.5,8.55,8.55,0,0,0,.57-3.17,6.45,6.45,0,0,0-2.28-5.31c-1.52-1.24-3.84-1.85-7-1.85h-5.4V88.69Z"/><path class="cls-1" d="M726.83,93.63a20.55,20.55,0,0,1-1.4,7.67,18,18,0,0,1-3.92,6.11,18.27,18.27,0,0,1-6.09,4,22,22,0,0,1-15.81,0,18.31,18.31,0,0,1-6.1-4,18,18,0,0,1-3.94-6.11,21.83,21.83,0,0,1,0-15.33,17.83,17.83,0,0,1,10-10.13,22,22,0,0,1,15.81,0,17.75,17.75,0,0,1,10,10.16A20.34,20.34,0,0,1,726.83,93.63Zm-8,0a16.8,16.8,0,0,0-.78-5.31,11.27,11.27,0,0,0-2.25-4,9.71,9.71,0,0,0-3.56-2.52,13.4,13.4,0,0,0-9.5,0,9.59,9.59,0,0,0-3.57,2.52,11.27,11.27,0,0,0-2.25,4,18.57,18.57,0,0,0,0,10.65,11.1,11.1,0,0,0,2.25,4,9.68,9.68,0,0,0,3.57,2.51,13.4,13.4,0,0,0,9.5,0,9.81,9.81,0,0,0,3.56-2.51,11.1,11.1,0,0,0,2.25-4A16.86,16.86,0,0,0,718.85,93.63Z"/><path class="cls-1" d="M800.78,103.22a1.44,1.44,0,0,1,1.09.47L805,107a14.68,14.68,0,0,1-5.68,4.42,19.75,19.75,0,0,1-8.06,1.51,19.24,19.24,0,0,1-7.62-1.45,16.33,16.33,0,0,1-5.74-4,17.83,17.83,0,0,1-3.64-6.11,23.67,23.67,0,0,1-.66-13.06,18,18,0,0,1,1.78-4.66,17.71,17.71,0,0,1,2.81-3.85,17.17,17.17,0,0,1,3.74-2.93A17.58,17.58,0,0,1,786.42,75a20.56,20.56,0,0,1,5.24-.64,20.76,20.76,0,0,1,3.94.36,19.21,19.21,0,0,1,3.47,1,16.12,16.12,0,0,1,3,1.57,17,17,0,0,1,2.46,2l-2.63,3.58a2.24,2.24,0,0,1-.59.6,1.73,1.73,0,0,1-1,.26,2.21,2.21,0,0,1-1.26-.44q-.64-.44-1.56-1a10.84,10.84,0,0,0-5.84-1.43,10.68,10.68,0,0,0-4.34.86,9.37,9.37,0,0,0-3.39,2.48,11.62,11.62,0,0,0-2.2,4,17.17,17.17,0,0,0-.77,5.38,15.94,15.94,0,0,0,.84,5.42,11.88,11.88,0,0,0,2.31,4,9.7,9.7,0,0,0,3.43,2.48,10.57,10.57,0,0,0,4.2.84,19.41,19.41,0,0,0,2.4-.13,10.2,10.2,0,0,0,2-.44,9.18,9.18,0,0,0,1.74-.81,10.77,10.77,0,0,0,1.65-1.24,3,3,0,0,1,.59-.39A1.45,1.45,0,0,1,800.78,103.22Z"/><path class="cls-1" d="M859.71,90.35h1.54A3.18,3.18,0,0,0,864,89.16l9.54-12.76a3.67,3.67,0,0,1,1.48-1.26,4.79,4.79,0,0,1,2-.35h6.76l-12,15.46a7.54,7.54,0,0,1-2.41,2.16,6.54,6.54,0,0,1,1.63.94,7.48,7.48,0,0,1,1.41,1.56l12.32,17.59h-6.94a4.91,4.91,0,0,1-1.16-.11,3.19,3.19,0,0,1-.84-.28,2.25,2.25,0,0,1-.63-.45,4.69,4.69,0,0,1-.49-.64L865,97.45a2.88,2.88,0,0,0-1.16-1,4.87,4.87,0,0,0-1.9-.3h-2.19V112.5h-7.8V74.79h7.8Z"/><g class="cls-3"><path class="cls-4" d="M311.49,150.6v23.21h-4.24V159.56q0-.45,0-1c0-.34,0-.69.08-1l-6.63,12.58a1.78,1.78,0,0,1-1.68,1.05h-.68a1.84,1.84,0,0,1-1-.27,1.89,1.89,0,0,1-.69-.78L290,157.51c0,.37.05.73.08,1.08s0,.67,0,1v14.25H285.9V150.6h3.65l.54,0a1.31,1.31,0,0,1,.42.08,1,1,0,0,1,.34.23,1.9,1.9,0,0,1,.3.42l6.49,12.38c.2.38.39.76.57,1.15s.34.8.5,1.22c.16-.42.33-.84.51-1.25s.36-.79.56-1.17l6.45-12.33a1.62,1.62,0,0,1,.3-.42,1.12,1.12,0,0,1,.35-.23,1.3,1.3,0,0,1,.41-.08l.55,0Z"/><path class="cls-4" d="M335.56,154.36v6h7.74V164h-7.74v6.09h9.95v3.76H330.73V150.6h14.78v3.76Z"/><path class="cls-4" d="M384.3,162.19a12.45,12.45,0,0,1-.86,4.68,10.65,10.65,0,0,1-2.41,3.68,11,11,0,0,1-3.75,2.39,13.07,13.07,0,0,1-4.87.87h-8.92V150.6h8.92a13.07,13.07,0,0,1,4.87.87,10.88,10.88,0,0,1,3.75,2.4,10.7,10.7,0,0,1,2.41,3.67A12.37,12.37,0,0,1,384.3,162.19Zm-4.93,0a10.41,10.41,0,0,0-.48-3.27,7.12,7.12,0,0,0-1.37-2.47,6.15,6.15,0,0,0-2.19-1.55,7.49,7.49,0,0,0-2.92-.54h-4.09v15.69h4.09a7.49,7.49,0,0,0,2.92-.54,5.8,5.8,0,0,0,2.19-1.55,7,7,0,0,0,1.37-2.47A10.51,10.51,0,0,0,379.37,162.19Z"/><path class="cls-4" d="M407.06,173.81h-4.83V150.6h4.83Z"/><path class="cls-4" d="M442.12,168.1a.88.88,0,0,1,.67.29l1.9,2a9,9,0,0,1-3.49,2.72,12.31,12.31,0,0,1-5,.93,11.83,11.83,0,0,1-4.68-.89,10.17,10.17,0,0,1-3.54-2.47,11.16,11.16,0,0,1-2.24-3.76,14,14,0,0,1-.78-4.76,14.59,14.59,0,0,1,.37-3.28,11.87,11.87,0,0,1,1.1-2.87,11.05,11.05,0,0,1,1.74-2.37,10.58,10.58,0,0,1,2.29-1.8,11.26,11.26,0,0,1,2.79-1.13,13.51,13.51,0,0,1,5.65-.17,12.68,12.68,0,0,1,2.14.62,10,10,0,0,1,1.83,1,10.29,10.29,0,0,1,1.51,1.24l-1.62,2.21a1.27,1.27,0,0,1-.37.36,1,1,0,0,1-.6.17,1.31,1.31,0,0,1-.78-.28c-.26-.18-.58-.38-1-.61a7.13,7.13,0,0,0-1.42-.6,7.33,7.33,0,0,0-2.17-.28,6.66,6.66,0,0,0-2.67.53,5.75,5.75,0,0,0-2.09,1.53,7.11,7.11,0,0,0-1.35,2.46,10.51,10.51,0,0,0-.48,3.3,9.88,9.88,0,0,0,.52,3.34,7.35,7.35,0,0,0,1.42,2.47,6,6,0,0,0,2.12,1.53,6.36,6.36,0,0,0,2.58.52A13.21,13.21,0,0,0,438,170a5.82,5.82,0,0,0,1.23-.27,5,5,0,0,0,1.07-.5,6.73,6.73,0,0,0,1-.76,1.61,1.61,0,0,1,.36-.24A.87.87,0,0,1,442.12,168.1Z"/><path class="cls-4" d="M482.11,173.81h-3.73a1.6,1.6,0,0,1-1-.3,1.71,1.71,0,0,1-.59-.76l-1.57-4.42H466l-1.57,4.42a1.82,1.82,0,0,1-.56.73,1.52,1.52,0,0,1-1,.33h-3.75l9.06-23.21h4.92ZM474.05,165l-2.51-7.1c-.15-.37-.31-.81-.48-1.31s-.32-1-.47-1.63c-.15.6-.3,1.15-.47,1.65s-.32,1-.47,1.33l-2.5,7.06Z"/><path class="cls-4" d="M512.42,169.9v3.91H498.65V150.6h4.8v19.3Z"/><path class="cls-4" d="M577,168.1a.88.88,0,0,1,.67.29l1.9,2a9,9,0,0,1-3.49,2.72,12.26,12.26,0,0,1-5,.93,11.85,11.85,0,0,1-4.69-.89,10.17,10.17,0,0,1-3.54-2.47,11,11,0,0,1-2.23-3.76,13.78,13.78,0,0,1-.79-4.76,14.59,14.59,0,0,1,.37-3.28,11.87,11.87,0,0,1,1.1-2.87,11.05,11.05,0,0,1,1.74-2.37,10.58,10.58,0,0,1,2.29-1.8,11.17,11.17,0,0,1,2.8-1.13,12.33,12.33,0,0,1,3.21-.39,12.55,12.55,0,0,1,2.43.22,12.68,12.68,0,0,1,2.14.62,10,10,0,0,1,1.83,1,10.29,10.29,0,0,1,1.51,1.24l-1.62,2.21a1.27,1.27,0,0,1-.37.36,1,1,0,0,1-.6.17,1.31,1.31,0,0,1-.78-.28c-.26-.18-.58-.38-1-.61a7.13,7.13,0,0,0-1.42-.6,7.33,7.33,0,0,0-2.17-.28,6.66,6.66,0,0,0-2.67.53,5.83,5.83,0,0,0-2.09,1.53,7.11,7.11,0,0,0-1.35,2.46,10.51,10.51,0,0,0-.48,3.3,9.88,9.88,0,0,0,.52,3.34,7.2,7.2,0,0,0,1.43,2.47,5.87,5.87,0,0,0,2.11,1.53,6.36,6.36,0,0,0,2.58.52,13.21,13.21,0,0,0,1.48-.08,5.82,5.82,0,0,0,1.23-.27,5,5,0,0,0,1.07-.5,6.73,6.73,0,0,0,1-.76,1.61,1.61,0,0,1,.36-.24A.87.87,0,0,1,577,168.1Z"/><path class="cls-4" d="M610.41,169.9v3.91H596.64V150.6h4.8v19.3Z"/><path class="cls-4" d="M632.56,173.81h-4.83V150.6h4.83Z"/><path class="cls-4" d="M671.7,150.6v23.21h-2.48a2.12,2.12,0,0,1-1-.19,2.33,2.33,0,0,1-.75-.63L656,158.28c0,.37.06.74.07,1.1s0,.7,0,1v13.42h-4.24V150.6h2.52l.52,0a1.33,1.33,0,0,1,.4.12,1.41,1.41,0,0,1,.33.23,2.66,2.66,0,0,1,.35.38l11.65,14.78c-.05-.4-.08-.79-.1-1.17s0-.74,0-1.09V150.6Z"/><path class="cls-4" d="M695.79,173.81H691V150.6h4.84Z"/><path class="cls-4" d="M730.85,168.1a.9.9,0,0,1,.67.29l1.9,2a9.12,9.12,0,0,1-3.49,2.72,12.31,12.31,0,0,1-5,.93,11.8,11.8,0,0,1-4.68-.89,10.17,10.17,0,0,1-3.54-2.47A11,11,0,0,1,714.5,167a14.84,14.84,0,0,1-.41-8,11.39,11.39,0,0,1,2.83-5.24,10.64,10.64,0,0,1,2.3-1.8,11.1,11.1,0,0,1,2.79-1.13,12.36,12.36,0,0,1,3.22-.39,12.7,12.7,0,0,1,2.43.22,12.56,12.56,0,0,1,2.13.62,10,10,0,0,1,1.83,1,9.79,9.79,0,0,1,1.51,1.24l-1.61,2.21a1.41,1.41,0,0,1-.37.36,1,1,0,0,1-.61.17,1.36,1.36,0,0,1-.78-.28c-.26-.18-.58-.38-1-.61a7,7,0,0,0-3.59-.88,6.66,6.66,0,0,0-2.67.53,5.67,5.67,0,0,0-2.09,1.53,7.13,7.13,0,0,0-1.36,2.46,10.81,10.81,0,0,0-.48,3.3,9.88,9.88,0,0,0,.53,3.34,7.18,7.18,0,0,0,1.42,2.47,6,6,0,0,0,2.11,1.53,6.4,6.4,0,0,0,2.58.52,13.08,13.08,0,0,0,1.48-.08,5.69,5.69,0,0,0,1.23-.27,5.3,5.3,0,0,0,1.08-.5,6.67,6.67,0,0,0,1-.76,1.67,1.67,0,0,1,.37-.24A.87.87,0,0,1,730.85,168.1Z"/></g></g></g></svg>