<svg xmlns="http://www.w3.org/2000/svg" viewBox="0 0 737.53 91.09"><defs><style>.cls-1{fill:#2d2d2d;}.cls-2{fill:#d4904c;}</style></defs><title>Asset 13</title><g id="Layer_2" data-name="Layer 2"><g id="copy"><path class="cls-1" d="M29.11,37.29H22.84a2.74,2.74,0,0,1-2.57-1.4L12.43,24a2.9,2.9,0,0,0-1-.95,3.37,3.37,0,0,0-1.56-.28h-3V37.29H0V0H11.37a23.38,23.38,0,0,1,6.51.79A12.49,12.49,0,0,1,22.34,3a8.7,8.7,0,0,1,2.57,3.39,11.2,11.2,0,0,1,.82,4.35,11.18,11.18,0,0,1-.55,3.55,10.22,10.22,0,0,1-1.6,3A11,11,0,0,1,21,19.73a13.33,13.33,0,0,1-3.49,1.62,6.87,6.87,0,0,1,1.23.91,6.53,6.53,0,0,1,1,1.26ZM11.27,17.74a10.62,10.62,0,0,0,3.41-.49,6.55,6.55,0,0,0,2.4-1.35,5.46,5.46,0,0,0,1.41-2.05A7.09,7.09,0,0,0,19,11.24a5.27,5.27,0,0,0-1.87-4.35c-1.25-1-3.15-1.52-5.71-1.52H6.94V17.74Z"/><path class="cls-1" d="M96.42,37.29H90V6.34h6.44Z"/><path class="cls-1" d="M191.28,6.34l-12.46,31H173L160.56,6.34h5.17a2.14,2.14,0,0,1,1.35.39,2.36,2.36,0,0,1,.78,1l6.7,17.83q.38,1,.75,2.19c.25.79.49,1.62.7,2.48.18-.86.38-1.69.6-2.48s.46-1.52.72-2.19L184,7.74a2.35,2.35,0,0,1,.75-1,2.13,2.13,0,0,1,1.36-.43Z"/><path class="cls-1" d="M262.87,11.35v8h10.32v4.85H262.87v8.12h13.27v5H256.42V6.34h19.72v5Z"/><path class="cls-1" d="M367.88,37.29H362.1a2.53,2.53,0,0,1-2.35-1.24l-5.88-9.5a2.71,2.71,0,0,0-.81-.81,2.61,2.61,0,0,0-1.29-.25H349.6v11.8h-6.4V6.34h9.73a20.26,20.26,0,0,1,5.54.66,10.78,10.78,0,0,1,3.78,1.87,7.24,7.24,0,0,1,2.15,2.85,9.33,9.33,0,0,1,.68,3.64,9.62,9.62,0,0,1-.43,2.91,8.73,8.73,0,0,1-1.27,2.51,9.28,9.28,0,0,1-2.05,2,10.77,10.77,0,0,1-2.77,1.41,6.52,6.52,0,0,1,1.15.82,6,6,0,0,1,1,1.14Zm-15-16.3a8,8,0,0,0,2.69-.4,5.13,5.13,0,0,0,1.86-1.08,4.26,4.26,0,0,0,1.06-1.64,5.86,5.86,0,0,0,.35-2,4.19,4.19,0,0,0-1.47-3.42,6.82,6.82,0,0,0-4.44-1.21H349.6V21Z"/><path class="cls-1" d="M463.22,37.29H457a2.75,2.75,0,0,1-2.58-1.4L446.53,24a2.81,2.81,0,0,0-1-.95,3.35,3.35,0,0,0-1.55-.28h-3V37.29H434.1V0h11.38A23.47,23.47,0,0,1,452,.79,12.36,12.36,0,0,1,456.44,3,8.61,8.61,0,0,1,459,6.38a11.2,11.2,0,0,1,.83,4.35,11.19,11.19,0,0,1-.56,3.55,10.22,10.22,0,0,1-1.6,3,10.61,10.61,0,0,1-2.58,2.4,13.18,13.18,0,0,1-3.49,1.62,6.94,6.94,0,0,1,1.24.91,6.49,6.49,0,0,1,1,1.26ZM445.37,17.74a10.73,10.73,0,0,0,3.42-.49,6.5,6.5,0,0,0,2.39-1.35,5.46,5.46,0,0,0,1.41-2.05,7.09,7.09,0,0,0,.47-2.61,5.27,5.27,0,0,0-1.88-4.35c-1.24-1-3.15-1.52-5.7-1.52H441V17.74Z"/><path class="cls-1" d="M552,21.8a16.83,16.83,0,0,1-1.15,6.29,14.49,14.49,0,0,1-8.22,8.33,18,18,0,0,1-13,0,15,15,0,0,1-5-3.31,14.64,14.64,0,0,1-3.23-5,16.83,16.83,0,0,1-1.15-6.29,16.74,16.74,0,0,1,1.15-6.28,14.47,14.47,0,0,1,3.23-5,14.87,14.87,0,0,1,5-3.32,18,18,0,0,1,13,0,14.62,14.62,0,0,1,8.22,8.34A16.71,16.71,0,0,1,552,21.8Zm-6.55,0a13.45,13.45,0,0,0-.65-4.36,9,9,0,0,0-1.84-3.29A8,8,0,0,0,540,12.08a10.18,10.18,0,0,0-3.89-.71,10.32,10.32,0,0,0-3.91.71,8,8,0,0,0-2.93,2.07,9.16,9.16,0,0,0-1.84,3.29,13.74,13.74,0,0,0-.64,4.36,13.73,13.73,0,0,0,.64,4.38,9.12,9.12,0,0,0,1.84,3.28,8.07,8.07,0,0,0,2.93,2.06,10.32,10.32,0,0,0,3.91.71,10.18,10.18,0,0,0,3.89-.71,8.12,8.12,0,0,0,2.92-2.06,9,9,0,0,0,1.84-3.28A13.45,13.45,0,0,0,545.41,21.8Z"/><path class="cls-1" d="M640.65,29.67a1.19,1.19,0,0,1,.9.39l2.53,2.7a12,12,0,0,1-4.66,3.63,16.26,16.26,0,0,1-6.62,1.24,15.76,15.76,0,0,1-6.25-1.19,13.3,13.3,0,0,1-4.71-3.29,14.61,14.61,0,0,1-3-5,18.44,18.44,0,0,1-1.05-6.33,18.25,18.25,0,0,1,.51-4.38,15.13,15.13,0,0,1,1.46-3.83,14.84,14.84,0,0,1,2.31-3.16A14,14,0,0,1,625.14,8a14.91,14.91,0,0,1,3.72-1.52,17.53,17.53,0,0,1,4.3-.52,16.64,16.64,0,0,1,3.23.3,16.06,16.06,0,0,1,2.85.83,13.45,13.45,0,0,1,2.44,1.29,13.86,13.86,0,0,1,2,1.66L641.55,13a2.28,2.28,0,0,1-.49.49,1.43,1.43,0,0,1-.81.22,1.83,1.83,0,0,1-1-.37c-.35-.24-.78-.51-1.28-.81a9,9,0,0,0-1.9-.81,9.75,9.75,0,0,0-2.89-.36,8.84,8.84,0,0,0-3.56.7,7.81,7.81,0,0,0-2.79,2,9.54,9.54,0,0,0-1.8,3.27,14,14,0,0,0-.64,4.42,13.07,13.07,0,0,0,.7,4.45,9.55,9.55,0,0,0,1.9,3.29,7.91,7.91,0,0,0,2.81,2,8.63,8.63,0,0,0,3.44.69,17,17,0,0,0,2-.1,9.65,9.65,0,0,0,1.64-.36,8.11,8.11,0,0,0,1.43-.67,8.55,8.55,0,0,0,1.35-1,2.42,2.42,0,0,1,.49-.32A1.18,1.18,0,0,1,640.65,29.67Z"/><path class="cls-1" d="M717,19.11h1.26a2.63,2.63,0,0,0,2.29-1l7.83-10.48a3,3,0,0,1,1.21-1,4.09,4.09,0,0,1,1.62-.28h5.55L726.91,19a6.22,6.22,0,0,1-2,1.76,6.11,6.11,0,0,1,1.34.78,6.39,6.39,0,0,1,1.16,1.28l10.1,14.44h-5.69a4.31,4.31,0,0,1-1-.09,3.1,3.1,0,0,1-.69-.23,2,2,0,0,1-.51-.38,3.77,3.77,0,0,1-.41-.52l-8-11.14a2.45,2.45,0,0,0-1-.82,4.08,4.08,0,0,0-1.56-.24H717V37.29h-6.4V6.34H717Z"/><path class="cls-2" d="M203.76,71.84v19h-3.48V79.19c0-.25,0-.51,0-.79s0-.56.07-.85l-5.44,10.33a1.46,1.46,0,0,1-1.38.85H193a1.47,1.47,0,0,1-1.38-.85l-5.48-10.37c0,.3.05.6.07.88s0,.55,0,.8V90.88h-3.48v-19h3.44a1.28,1.28,0,0,1,.35.07.8.8,0,0,1,.27.18,2.12,2.12,0,0,1,.24.35l5.33,10.17c.17.3.32.61.47.94s.28.65.41,1c.13-.35.27-.69.42-1a10.59,10.59,0,0,1,.46-1l5.29-10.12a1.66,1.66,0,0,1,.25-.35,1,1,0,0,1,.28-.18,1.21,1.21,0,0,1,.34-.07h3.45Z"/><path class="cls-2" d="M223.51,74.92v4.9h6.36v3h-6.36v5h8.17v3.08H219.55v-19h12.13v3.08Z"/><path class="cls-2" d="M263.51,81.35a10.17,10.17,0,0,1-.7,3.84,8.81,8.81,0,0,1-2,3,9,9,0,0,1-3.08,2,10.65,10.65,0,0,1-4,.71h-7.32v-19h7.32a10.65,10.65,0,0,1,4,.71,8.71,8.71,0,0,1,5.06,5A10.14,10.14,0,0,1,263.51,81.35Zm-4,0a8.69,8.69,0,0,0-.39-2.69,5.83,5.83,0,0,0-1.13-2,5,5,0,0,0-1.79-1.27,6.11,6.11,0,0,0-2.4-.45H250.4V87.8h3.36a6.3,6.3,0,0,0,2.4-.44A4.88,4.88,0,0,0,258,86.09a6,6,0,0,0,1.13-2A8.73,8.73,0,0,0,259.47,81.35Z"/><path class="cls-2" d="M282.19,90.88h-4v-19h4Z"/><path class="cls-2" d="M311,86.2a.75.75,0,0,1,.55.23l1.56,1.67a7.38,7.38,0,0,1-2.87,2.23,9.92,9.92,0,0,1-4.07.76,9.82,9.82,0,0,1-3.85-.72,8.48,8.48,0,0,1-2.9-2,9,9,0,0,1-1.84-3.09,11.4,11.4,0,0,1-.64-3.9,11.2,11.2,0,0,1,.31-2.69,9,9,0,0,1,.9-2.36,8.89,8.89,0,0,1,1.42-1.94,8.71,8.71,0,0,1,1.88-1.48,8.8,8.8,0,0,1,2.3-.93,10.16,10.16,0,0,1,2.64-.32,10.6,10.6,0,0,1,2,.18,9.37,9.37,0,0,1,1.75.51,7.4,7.4,0,0,1,1.5.8,8.38,8.38,0,0,1,1.24,1l-1.32,1.81a1.26,1.26,0,0,1-.3.31.9.9,0,0,1-.5.13,1.12,1.12,0,0,1-.64-.22,8.64,8.64,0,0,0-.79-.5,5.52,5.52,0,0,0-1.16-.5,6,6,0,0,0-1.78-.23,5.47,5.47,0,0,0-2.2.44,4.79,4.79,0,0,0-1.71,1.25,5.87,5.87,0,0,0-1.11,2,8.69,8.69,0,0,0-.39,2.71,8,8,0,0,0,.43,2.74,6,6,0,0,0,1.16,2,5,5,0,0,0,1.74,1.25,5.19,5.19,0,0,0,2.12.43,9,9,0,0,0,1.21-.07,5.15,5.15,0,0,0,1-.22,4.42,4.42,0,0,0,.88-.41,4.55,4.55,0,0,0,.83-.63,1.44,1.44,0,0,1,.31-.19A.66.66,0,0,1,311,86.2Z"/><path class="cls-2" d="M343.78,90.88h-3a1.39,1.39,0,0,1-.84-.24,1.55,1.55,0,0,1-.48-.62l-1.28-3.64h-7.59L329.25,90a1.4,1.4,0,0,1-.45.59,1.27,1.27,0,0,1-.83.27h-3.09l7.44-19h4Zm-6.61-7.23-2.06-5.83c-.13-.3-.25-.66-.39-1.07s-.26-.86-.39-1.34c-.12.49-.25.94-.38,1.35s-.27.78-.39,1.09l-2.05,5.8Z"/><path class="cls-2" d="M368.66,87.68v3.2h-11.3v-19h3.94V87.68Z"/><path class="cls-2" d="M421.63,86.2a.75.75,0,0,1,.55.23l1.56,1.67a7.35,7.35,0,0,1-2.86,2.23,9.94,9.94,0,0,1-4.08.76,9.74,9.74,0,0,1-3.84-.72,8.52,8.52,0,0,1-2.91-2,9,9,0,0,1-1.83-3.09,11.4,11.4,0,0,1-.65-3.9,11.73,11.73,0,0,1,.31-2.69,9.39,9.39,0,0,1,.9-2.36,8.89,8.89,0,0,1,1.42-1.94A8.77,8.77,0,0,1,414.38,72a10.21,10.21,0,0,1,2.64-.32,10.52,10.52,0,0,1,2,.18,9.48,9.48,0,0,1,1.76.51,7.68,7.68,0,0,1,1.5.8,8.93,8.93,0,0,1,1.24,1l-1.33,1.81a1.26,1.26,0,0,1-.3.31.9.9,0,0,1-.5.13,1.12,1.12,0,0,1-.64-.22c-.21-.15-.47-.32-.78-.5a5.63,5.63,0,0,0-1.17-.5,5.92,5.92,0,0,0-1.78-.23,5.42,5.42,0,0,0-2.19.44,4.62,4.62,0,0,0-1.71,1.25,5.88,5.88,0,0,0-1.12,2,8.69,8.69,0,0,0-.39,2.71,8,8,0,0,0,.43,2.74,5.85,5.85,0,0,0,1.17,2,4.83,4.83,0,0,0,1.73,1.25,5.22,5.22,0,0,0,2.12.43,8.87,8.87,0,0,0,1.21-.07,5,5,0,0,0,1-.22,4.17,4.17,0,0,0,.88-.41,4.6,4.6,0,0,0,.84-.63,1.17,1.17,0,0,1,.3-.19A.66.66,0,0,1,421.63,86.2Z"/><path class="cls-2" d="M449.08,87.68v3.2h-11.3v-19h3.94V87.68Z"/><path class="cls-2" d="M467.26,90.88h-4v-19h4Z"/><path class="cls-2" d="M499.38,71.84v19h-2a1.81,1.81,0,0,1-.78-.15,1.86,1.86,0,0,1-.61-.51l-9.5-12.08c0,.3.05.61.06.9s0,.58,0,.83v11h-3.48v-19h2.08a2.68,2.68,0,0,1,.42,0,.9.9,0,0,1,.33.09,1.2,1.2,0,0,1,.27.19,2.23,2.23,0,0,1,.29.31L496,84.58c0-.33-.06-.65-.08-1s0-.61,0-.89V71.84Z"/><path class="cls-2" d="M519.15,90.88h-4v-19h4Z"/><path class="cls-2" d="M547.92,86.2a.73.73,0,0,1,.55.23L550,88.1a7.28,7.28,0,0,1-2.86,2.23,9.94,9.94,0,0,1-4.08.76,9.77,9.77,0,0,1-3.84-.72,8.38,8.38,0,0,1-2.9-2,9,9,0,0,1-1.84-3.09,11.4,11.4,0,0,1-.65-3.9,11.73,11.73,0,0,1,.31-2.69,9.79,9.79,0,0,1,.9-2.36,8.93,8.93,0,0,1,1.43-1.94,8.47,8.47,0,0,1,1.88-1.48,8.74,8.74,0,0,1,2.29-.93,10.27,10.27,0,0,1,2.64-.32,10.7,10.7,0,0,1,2,.18,9.6,9.6,0,0,1,1.75.51,7.68,7.68,0,0,1,1.5.8,8.93,8.93,0,0,1,1.24,1l-1.33,1.81a1.1,1.1,0,0,1-.3.31.9.9,0,0,1-.5.13,1.09,1.09,0,0,1-.63-.22c-.22-.15-.48-.32-.79-.5a5.4,5.4,0,0,0-1.17-.5,5.92,5.92,0,0,0-1.78-.23,5.46,5.46,0,0,0-2.19.44,4.7,4.7,0,0,0-1.71,1.25,5.71,5.71,0,0,0-1.11,2,8.68,8.68,0,0,0-.4,2.71,8,8,0,0,0,.43,2.74,6.19,6.19,0,0,0,1.17,2,4.92,4.92,0,0,0,1.73,1.25,5.22,5.22,0,0,0,2.12.43,8.87,8.87,0,0,0,1.21-.07,5.25,5.25,0,0,0,1-.22,4.7,4.7,0,0,0,.88-.41,4.92,4.92,0,0,0,.83-.63,1.37,1.37,0,0,1,.3-.19A.68.68,0,0,1,547.92,86.2Z"/></g></g></svg>