<svg xmlns="http://www.w3.org/2000/svg" viewBox="0 0 814.44 604.47"><defs><style>.cls-1,.cls-2{fill:none;stroke-miterlimit:10;stroke-width:3px;}.cls-1{stroke:#cba47d;}.cls-2{stroke:#2d2d2d;}.cls-3{fill:#2d2d2d;}.cls-4{fill:#fff;}</style></defs><title>Asset 14</title><g id="Layer_2" data-name="Layer 2"><g id="arrows"><polygon class="cls-1" points="587.68 136.02 768.15 302.24 587.68 468.45 226.75 468.45 46.29 302.24 226.75 136.02 587.68 136.02"/><line class="cls-1" x1="696.49" y1="35.81" x2="117.95" y2="568.66"/><line class="cls-1" x1="695.23" y1="570.02" x2="119.2" y2="34.45"/><circle class="cls-2" cx="407.22" cy="302.24" r="92.55"/><circle class="cls-2" cx="768.15" cy="302.24" r="44.79" transform="translate(445.53 1062.05) rotate(-88.47)"/><path class="cls-2" d="M46.29,347A44.8,44.8,0,1,0,1.5,302.24,44.8,44.8,0,0,0,46.29,347Z"/><polygon class="cls-3" points="714.96 553 677.29 590.67 728.76 604.46 714.96 553"/><polygon class="cls-3" points="85.68 604.47 137.15 590.67 99.47 553 85.68 604.47"/><polygon class="cls-3" points="728.76 0.01 677.29 13.8 714.96 51.48 728.76 0.01"/><polygon class="cls-3" points="137.15 13.8 85.68 0 99.47 51.48 137.15 13.8"/><circle class="cls-3" cx="406.91" cy="302.96" r="68.54"/><path class="cls-4" d="M406.9,348.06a44.79,44.79,0,1,0-44.79-44.79A44.8,44.8,0,0,0,406.9,348.06Z"/></g></g></svg>