<svg xmlns="http://www.w3.org/2000/svg" viewBox="0 0 385.44 416.62"><defs><style>.cls-1{fill:#cba47d;}</style></defs><title>Asset 6</title><g id="Layer_2" data-name="Layer 2"><g id="copy"><polygon class="cls-1" points="353.51 175.38 351.24 175.38 351.24 94.14 192.72 2.62 34.2 94.14 34.2 175.38 31.93 175.38 31.93 92.83 192.72 0 353.51 92.83 353.51 175.38"/><polygon class="cls-1" points="192.72 416.62 192.15 416.3 31.93 323.79 31.93 285.13 34.2 285.13 34.2 322.49 192.72 414.01 351.24 322.49 351.24 285.13 353.51 285.13 353.51 323.79 352.94 324.12 192.72 416.62"/><polygon class="cls-1" points="385.44 274.2 0 274.2 0 142.43 20.16 142.43 20.16 144.69 2.27 144.69 2.27 271.93 383.18 271.93 383.18 144.69 366.69 144.69 366.69 142.43 385.44 142.43 385.44 274.2"/></g></g></svg>