<svg xmlns="http://www.w3.org/2000/svg" viewBox="0 0 823.51 823.51"><defs><style>.cls-1{fill:none;stroke:#cba47d;stroke-miterlimit:10;stroke-width:0.85px;}.cls-2{fill:#2d2d2d;}</style></defs><title>Asset 21</title><g id="Layer_2" data-name="Layer 2"><g id="copy"><path class="cls-1" d="M411.75,823.08a41.46,41.46,0,0,1-29.48-12.21L12.64,441.23a41.69,41.69,0,0,1,0-59L382.27,12.64a41.69,41.69,0,0,1,59,0L810.87,382.27a41.69,41.69,0,0,1,0,59L441.23,810.87A41.42,41.42,0,0,1,411.75,823.08Z"/><polygon class="cls-2" points="519.18 307 468.13 320.67 505.49 358.04 519.18 307"/><polygon class="cls-2" points="373.13 320.67 322.08 306.98 335.75 358.04 373.13 320.67"/><polygon class="cls-2" points="505.49 450.11 468.13 487.48 519.18 501.16 505.49 450.11"/><polygon class="cls-2" points="322.08 501.17 373.13 487.48 335.75 450.11 322.08 501.17"/></g></g></svg>