<svg xmlns="http://www.w3.org/2000/svg" viewBox="0 0 420.33 420.33"><defs><style>.cls-1{fill:#cba47d;}</style></defs><title>Asset 4</title><g id="Layer_2" data-name="Layer 2"><g id="copy"><path class="cls-1" d="M210.16,420.33a21.17,21.17,0,0,1-15.06-6.24L6.24,225.23a21.31,21.31,0,0,1,0-30.13L195.1,6.24a21.31,21.31,0,0,1,30.13,0L414.09,195.1a21.31,21.31,0,0,1,0,30.13L225.23,414.09A21.21,21.21,0,0,1,210.16,420.33Zm0-418.28a19.19,19.19,0,0,0-13.62,5.63L7.68,196.54a19.27,19.27,0,0,0,0,27.24L196.54,412.65a19.28,19.28,0,0,0,27.25,0L412.65,223.78a19.28,19.28,0,0,0,0-27.24L223.79,7.68A19.2,19.2,0,0,0,210.16,2.05Z"/><rect class="cls-1" x="118.46" y="230.11" width="2.04" height="139.17" transform="translate(-176.92 172.26) rotate(-45)"/><rect class="cls-1" x="298.15" y="50.42" width="2.04" height="139.17" transform="translate(2.77 246.69) rotate(-45)"/></g></g></svg>