<?xml version="1.0" standalone="no"?>
<!DOCTYPE svg PUBLIC "-//W3C//DTD SVG 20010904//EN"
 "http://www.w3.org/TR/2001/REC-SVG-20010904/DTD/svg10.dtd">
<svg version="1.0" xmlns="http://www.w3.org/2000/svg"
 width="982.000000pt" height="982.000000pt" viewBox="0 0 982.000000 982.000000"
 preserveAspectRatio="xMidYMid meet">
<metadata>
Created by potrace 1.11, written by Peter Selinger 2001-2013
</metadata>
<g transform="translate(0.000000,982.000000) scale(0.100000,-0.100000)"
fill="#000000" stroke="none">
<path d="M2376 7353 c0 -1352 -2 -2463 -4 -2470 -2 -6 -42 12 -100 46 -53 32
-122 71 -152 88 -30 17 -122 70 -205 118 -82 48 -170 99 -195 113 -25 14 -128
73 -230 132 -102 59 -201 117 -220 128 -19 10 -75 43 -125 72 -49 29 -110 64
-135 78 -25 14 -130 75 -235 135 -104 61 -194 110 -200 110 -16 -1 -550 -312
-553 -323 -2 -6 5 -13 15 -17 10 -4 54 -28 98 -54 44 -26 96 -56 115 -67 19
-11 91 -52 160 -92 69 -39 143 -82 165 -95 22 -12 96 -55 165 -95 69 -40 145
-84 170 -98 52 -29 107 -62 135 -80 11 -6 27 -15 35 -19 8 -3 58 -32 110 -63
78 -47 205 -119 382 -220 14 -8 201 -116 415 -239 l388 -225 0 -2103 c0 -1796
2 -2102 14 -2098 8 3 221 125 473 271 253 146 474 273 491 283 33 19 157 90
325 188 164 95 474 274 522 301 25 14 74 42 109 64 34 21 64 38 66 38 1 0 96
55 211 121 115 67 227 132 249 144 31 18 479 276 650 375 17 9 91 52 165 95
74 43 188 109 253 147 l119 68 366 -211 c202 -117 387 -223 412 -237 25 -14
57 -33 72 -43 14 -11 28 -19 31 -19 3 0 51 -27 106 -60 56 -33 104 -60 108
-60 3 0 14 -6 22 -14 9 -7 41 -27 71 -43 66 -36 87 -48 250 -143 68 -40 140
-82 160 -93 85 -47 128 -72 170 -97 92 -55 676 -393 798 -461 20 -12 74 -43
120 -70 45 -27 85 -49 87 -49 3 0 29 -16 59 -35 30 -19 57 -35 59 -35 2 0 77
-43 166 -95 90 -52 167 -95 171 -95 7 0 289 160 342 194 27 17 140 80 186 103
17 9 32 19 32 22 0 8 -4 10 -165 103 -308 178 -1043 603 -1073 620 -18 10
-102 58 -185 107 -84 48 -260 150 -392 226 -132 76 -368 212 -525 303 -157 90
-391 225 -520 300 -129 74 -263 152 -298 173 l-62 37 152 88 c277 159 712 411
748 433 19 11 41 24 49 28 8 3 64 36 125 71 61 36 136 78 166 95 30 16 62 35
70 41 8 6 24 16 35 22 105 56 204 118 198 125 -4 4 -24 16 -43 27 -19 10 -75
43 -125 72 -105 61 -662 383 -850 490 -16 10 -86 50 -155 90 -69 40 -145 84
-170 97 -25 14 -49 28 -55 33 -12 9 -409 237 -447 257 -16 8 -28 18 -28 21 0
6 37 29 220 133 25 14 61 35 80 46 36 21 272 157 705 408 132 76 251 145 265
152 14 8 45 26 70 41 25 15 112 65 194 112 81 47 162 93 179 104 18 10 120 69
227 131 107 62 240 138 295 170 55 32 114 66 130 75 17 9 49 28 71 41 23 13
96 55 162 93 l122 70 -28 16 c-15 9 -151 88 -302 175 -151 86 -291 168 -310
180 -30 19 -70 41 -237 136 -53 30 -89 51 -258 149 -88 51 -173 101 -190 110
-46 26 -285 165 -325 189 -19 11 -42 24 -50 28 -8 4 -78 44 -155 88 -77 45
-302 175 -500 289 -198 114 -385 222 -415 240 -30 18 -120 70 -200 116 -80 46
-208 120 -285 165 -77 45 -149 87 -160 93 -11 6 -118 68 -238 137 -120 69
-237 136 -260 149 -23 13 -120 69 -216 125 -95 56 -175 101 -178 101 -2 0 -27
15 -56 33 -29 18 -59 36 -67 40 -8 4 -33 18 -55 31 -22 14 -51 31 -65 39 -14
7 -131 74 -260 149 -835 483 -1001 578 -1009 578 -5 0 -11 3 -13 8 -3 6 -104
67 -218 130 -25 14 -156 90 -292 169 -136 78 -250 143 -255 143 -4 0 -8 -1106
-7 -2457z m634 1445 c25 -14 187 -108 360 -208 173 -100 335 -194 360 -208 25
-14 173 -99 330 -190 453 -262 662 -383 705 -407 22 -13 108 -62 190 -110 83
-48 166 -97 185 -107 42 -24 138 -79 162 -93 9 -5 45 -26 80 -46 35 -20 79
-45 98 -56 19 -11 161 -93 315 -183 154 -89 305 -176 335 -193 30 -17 87 -49
125 -72 39 -23 183 -106 320 -185 138 -78 262 -151 277 -161 15 -11 29 -19 32
-19 3 0 445 -253 506 -290 22 -13 169 -99 215 -125 149 -85 221 -128 228 -135
8 -7 -34 -34 -163 -108 -19 -10 -298 -172 -620 -358 -713 -412 -660 -381 -690
-396 -14 -7 -27 -15 -30 -19 -3 -3 -59 -36 -125 -73 -145 -82 -149 -84 -352
-202 -89 -52 -164 -94 -168 -94 -5 0 -224 125 -310 177 -11 7 -27 15 -35 19
-8 4 -152 87 -320 184 -168 97 -332 192 -365 210 -33 18 -64 36 -70 40 -8 6
-109 65 -430 250 -16 9 -176 102 -355 205 -179 103 -345 199 -370 213 -25 14
-110 63 -190 110 -80 46 -180 104 -222 129 l-78 45 0 1250 c0 999 3 1248 13
1241 6 -6 32 -22 57 -35z m46 -3178 c46 -27 86 -50 89 -50 2 0 40 -22 85 -50
45 -27 83 -50 85 -50 1 0 65 -36 141 -81 135 -79 181 -105 274 -157 25 -14 62
-36 82 -49 21 -12 40 -23 43 -23 3 0 18 -8 33 -19 15 -10 151 -90 302 -177
151 -87 361 -207 465 -267 105 -61 210 -122 235 -136 174 -99 220 -127 220
-131 0 -3 -60 -40 -132 -82 -184 -105 -422 -243 -554 -320 -61 -36 -117 -68
-125 -71 -8 -4 -36 -21 -64 -37 -27 -17 -63 -38 -80 -46 l-30 -15 -375 217
c-206 119 -390 225 -408 235 -18 11 -63 37 -100 58 -37 21 -120 69 -184 106
l-118 67 0 570 c0 509 2 570 15 564 9 -3 54 -28 101 -56z m2752 -1589 c64 -37
137 -80 162 -94 45 -25 481 -276 775 -447 88 -51 184 -106 213 -122 59 -34 60
-31 -28 -81 -25 -14 -187 -107 -360 -207 -173 -100 -337 -195 -365 -210 -27
-16 -77 -44 -109 -64 -33 -20 -66 -36 -73 -36 -7 0 -125 66 -263 146 -139 80
-273 157 -298 171 -26 14 -59 34 -74 44 -14 11 -28 19 -31 19 -2 0 -107 60
-233 133 -126 73 -273 157 -326 187 -54 30 -98 57 -98 60 0 3 26 20 58 38 31
18 75 43 97 56 70 40 498 288 540 311 22 13 94 55 160 93 66 39 124 71 128 71
5 1 61 -30 125 -68z m-2693 -243 c61 -35 117 -67 125 -71 8 -4 22 -11 30 -17
31 -20 151 -90 154 -90 12 0 121 -73 121 -81 0 -6 -27 -25 -60 -43 -33 -18
-100 -57 -150 -86 -49 -29 -109 -63 -132 -76 -23 -13 -92 -53 -152 -89 l-111
-64 0 360 0 361 33 -20 c17 -11 82 -49 142 -84z m1069 -617 c28 -16 220 -127
426 -246 206 -119 399 -230 428 -246 28 -16 70 -40 92 -54 22 -14 41 -25 44
-25 2 0 45 -25 95 -55 51 -30 94 -55 97 -55 2 0 23 -12 45 -27 l40 -26 -43
-27 c-24 -15 -63 -38 -88 -52 -73 -42 -224 -128 -400 -230 -91 -53 -253 -146
-360 -208 -107 -62 -249 -144 -315 -183 -66 -38 -178 -103 -250 -144 -71 -41
-137 -79 -145 -84 -19 -11 -748 -432 -810 -467 -25 -14 -54 -31 -65 -38 -11
-8 -23 -14 -27 -14 -5 0 -7 344 -6 766 l3 765 170 98 c94 54 244 141 335 193
91 53 181 105 200 116 209 120 429 247 445 258 27 19 31 18 89 -15z"/>
</g>
</svg>
